<mxfile host="app.diagrams.net" modified="2023-09-25T05:03:04.493Z" agent="Mozilla/5.0 (Windows NT 10.0; Win64; x64) AppleWebKit/537.36 (KHTML, like Gecko) Chrome/116.0.0.0 Safari/537.36" version="21.7.2" etag="3KyaGQJR-crxDVOTKdAB" type="github">
  <diagram name="페이지-1" id="7JXFBVl6lsvL9XaOEfCq">
    <mxGraphModel>
      <root>
        <mxCell id="0" />
        <mxCell id="1" parent="0" />
      </root>
    </mxGraphModel>
  </diagram>
</mxfile>
